<svg id="Capa_1" enable-background="new 0 0 512 512" height="512" viewBox="0 0 512 512" width="512" xmlns="http://www.w3.org/2000/svg"><g><path d="m457 82h-2.905c13.115-35.92 16.593-63.51 16.797-65.203.552-4.567-1.023-9.135-4.273-12.392-3.248-3.257-7.813-4.841-12.382-4.301-4.138.49-102.038 12.781-171.3 81.896h-172.937v-45c0-8.284-6.716-15-15-15h-40c-30.327 0-55 24.673-55 55v300c0 30.327 24.673 55 55 55h347v65c0 8.284 6.716 15 15 15h40c30.327 0 55-24.673 55-55v-320c0-30.327-24.673-55-55-55zm-19.858-48.163c-4.658 19.966-14.167 51.785-32.285 83.575l-50.793 10.158c-5.425 1.085-9.812 5.068-11.415 10.362s-.162 11.042 3.75 14.954l17.635 17.634c-31.56 30.059-69.954 47.654-100.03 57.69l61.182-61.182c5.858-5.857 5.858-15.355 0-21.213-5.856-5.858-15.354-5.858-21.213 0l-61.18 61.18c10.417-31.224 28.979-71.406 61.179-103.607 43.846-43.846 102.515-62.425 133.17-69.551zm-407.142 43.163c0-13.785 11.215-25 25-25h25v270h-25c-8.996 0-17.496 2.171-25 6.017zm25 325c-13.785 0-25-11.215-25-25s11.215-25 25-25h40c8.284 0 15-6.716 15-15v-225h147.352c-40.499 55.64-52.957 117.871-55.902 136.337l-38.899 38.899c-5.858 5.858-5.858 15.355 0 21.213 2.929 2.929 6.767 4.394 10.606 4.394 3.838 0 7.678-1.465 10.606-4.394l38.9-38.899c21.875-3.488 105.172-20.32 166.16-81.307 2.016-2.016 3.796-3.992 5.518-5.903.58-.644 1.16-1.288 1.746-1.929 5.413-5.922 5.208-15.055-.465-20.728l-8.191-8.192 29.902-5.98c4.132-.826 7.726-3.352 9.902-6.96 5.371-8.903 10.102-17.818 14.272-26.551h15.493c13.785 0 25 11.215 25 25v271.035c-7.507-3.849-16-6.035-25-6.035h-40zm402 80h-25v-50h25c13.785 0 25 11.215 25 25s-11.215 25-25 25z"/></g></svg>